<svg width="74" height="13" viewBox="0 0 74 13" fill="none" xmlns="http://www.w3.org/2000/svg">
<mask id="path-1-outside-1_1193_516" maskUnits="userSpaceOnUse" x="-0.0140381" y="-0.754028" width="75" height="14" fill="black">
<rect fill="white" x="-0.0140381" y="-0.754028" width="75" height="14"/>
<path d="M3.63476 1.10757C4.64356 1.10757 5.47556 1.23237 6.13076 1.48197C6.78596 1.72117 7.27476 2.09037 7.59716 2.58957C7.91956 3.07837 8.08076 3.69717 8.08076 4.44597C8.08076 4.95557 7.98196 5.40277 7.78436 5.78757C7.59716 6.16197 7.34236 6.48437 7.01996 6.75477C6.70796 7.01477 6.36996 7.22797 6.00596 7.39437L9.28196 12.246H6.66116L4.00916 7.97157H2.74556V12.246H0.389962V1.10757H3.63476ZM3.46316 3.04197H2.74556V6.05277H3.50996C4.02996 6.05277 4.45116 5.99557 4.77356 5.88117C5.09596 5.76677 5.32996 5.59517 5.47556 5.36637C5.62116 5.12717 5.69396 4.84117 5.69396 4.50837C5.69396 4.15477 5.61076 3.87397 5.44436 3.66597C5.28836 3.44757 5.04396 3.29157 4.71116 3.19797C4.38876 3.09397 3.97276 3.04197 3.46316 3.04197ZM18.2388 7.97157C18.2388 8.67877 18.14 9.30797 17.9424 9.85917C17.7552 10.4104 17.4796 10.8784 17.1156 11.2632C16.762 11.6376 16.3304 11.9236 15.8208 12.1212C15.3112 12.3084 14.734 12.402 14.0892 12.402C13.4964 12.402 12.9452 12.3084 12.4356 12.1212C11.9364 11.9236 11.5048 11.6376 11.1408 11.2632C10.7768 10.8784 10.4908 10.4104 10.2828 9.85917C10.0852 9.30797 9.9864 8.67877 9.9864 7.97157C9.9864 7.02517 10.1528 6.22957 10.4856 5.58477C10.8184 4.92957 11.2968 4.43037 11.9208 4.08717C12.5448 3.74397 13.2832 3.57237 14.136 3.57237C14.9368 3.57237 15.644 3.74397 16.2576 4.08717C16.8712 4.43037 17.3548 4.92957 17.7084 5.58477C18.062 6.22957 18.2388 7.02517 18.2388 7.97157ZM12.3576 7.97157C12.3576 8.53317 12.4148 9.00637 12.5292 9.39117C12.654 9.76557 12.8464 10.0516 13.1064 10.2492C13.3664 10.4364 13.7044 10.53 14.1204 10.53C14.5364 10.53 14.8692 10.4364 15.1188 10.2492C15.3788 10.0516 15.566 9.76557 15.6804 9.39117C15.8052 9.00637 15.8676 8.53317 15.8676 7.97157C15.8676 7.40997 15.8052 6.94197 15.6804 6.56757C15.566 6.19317 15.3788 5.91237 15.1188 5.72517C14.8588 5.53797 14.5208 5.44437 14.1048 5.44437C13.4912 5.44437 13.044 5.65757 12.7632 6.08397C12.4928 6.49997 12.3576 7.12917 12.3576 7.97157ZM27.8974 7.97157C27.8974 8.67877 27.7986 9.30797 27.601 9.85917C27.4138 10.4104 27.1382 10.8784 26.7742 11.2632C26.4206 11.6376 25.989 11.9236 25.4794 12.1212C24.9698 12.3084 24.3926 12.402 23.7478 12.402C23.155 12.402 22.6038 12.3084 22.0942 12.1212C21.595 11.9236 21.1634 11.6376 20.7994 11.2632C20.4354 10.8784 20.1494 10.4104 19.9414 9.85917C19.7438 9.30797 19.645 8.67877 19.645 7.97157C19.645 7.02517 19.8114 6.22957 20.1442 5.58477C20.477 4.92957 20.9554 4.43037 21.5794 4.08717C22.2034 3.74397 22.9418 3.57237 23.7946 3.57237C24.5954 3.57237 25.3026 3.74397 25.9162 4.08717C26.5298 4.43037 27.0134 4.92957 27.367 5.58477C27.7206 6.22957 27.8974 7.02517 27.8974 7.97157ZM22.0162 7.97157C22.0162 8.53317 22.0734 9.00637 22.1878 9.39117C22.3126 9.76557 22.505 10.0516 22.765 10.2492C23.025 10.4364 23.363 10.53 23.779 10.53C24.195 10.53 24.5278 10.4364 24.7774 10.2492C25.0374 10.0516 25.2246 9.76557 25.339 9.39117C25.4638 9.00637 25.5262 8.53317 25.5262 7.97157C25.5262 7.40997 25.4638 6.94197 25.339 6.56757C25.2246 6.19317 25.0374 5.91237 24.7774 5.72517C24.5174 5.53797 24.1794 5.44437 23.7634 5.44437C23.1498 5.44437 22.7026 5.65757 22.4218 6.08397C22.1514 6.49997 22.0162 7.12917 22.0162 7.97157ZM33.4064 10.5456C33.6664 10.5456 33.916 10.5196 34.1552 10.4676C34.3944 10.4156 34.6336 10.3532 34.8728 10.2804V12.012C34.6232 12.116 34.3112 12.2044 33.9368 12.2772C33.5728 12.3604 33.1724 12.402 32.7356 12.402C32.226 12.402 31.7684 12.3188 31.3628 12.1524C30.9676 11.986 30.6504 11.7 30.4112 11.2944C30.1824 10.8784 30.068 10.3064 30.068 9.57837V5.47557H28.9604V4.49277L30.2396 3.71277L30.9104 1.91877H32.3924V3.72837H34.7792V5.47557H32.3924V9.57837C32.3924 9.90077 32.486 10.1452 32.6732 10.3116C32.8604 10.4676 33.1048 10.5456 33.4064 10.5456ZM40.2017 0.951571C40.8049 0.951571 41.3405 1.04517 41.8085 1.23237C42.2765 1.41957 42.6457 1.69517 42.9161 2.05917C43.1865 2.41277 43.3217 2.84957 43.3217 3.36957C43.3217 4.08717 43.1085 4.69037 42.6821 5.17917C42.2557 5.66797 41.7253 6.09437 41.0909 6.45837L43.2593 8.56437C43.4673 8.21077 43.6493 7.84157 43.8053 7.45677C43.9613 7.06157 44.0913 6.66637 44.1953 6.27117H46.6133C46.4573 6.85357 46.2285 7.47757 45.9269 8.14317C45.6253 8.80877 45.2405 9.43277 44.7725 10.0152L47.0657 12.246H44.1953L43.3217 11.388C43.0929 11.544 42.8537 11.6844 42.6041 11.8092C42.3545 11.934 42.0945 12.0432 41.8241 12.1368C41.5537 12.22 41.2677 12.2824 40.9661 12.324C40.6645 12.376 40.3525 12.402 40.0301 12.402C39.1877 12.402 38.4649 12.272 37.8617 12.012C37.2585 11.7416 36.7957 11.3672 36.4733 10.8888C36.1509 10.4104 35.9897 9.85917 35.9897 9.23517C35.9897 8.70477 36.0677 8.25237 36.2237 7.87797C36.3901 7.49317 36.6241 7.16037 36.9257 6.87957C37.2377 6.58837 37.6069 6.32317 38.0333 6.08397C37.7629 5.77197 37.5445 5.48077 37.3781 5.21037C37.2221 4.92957 37.1077 4.65397 37.0349 4.38357C36.9725 4.11317 36.9413 3.82717 36.9413 3.52557C36.9413 2.99517 37.0765 2.53757 37.3469 2.15277C37.6277 1.76797 38.0125 1.47157 38.5013 1.26357C39.0005 1.05557 39.5673 0.951571 40.2017 0.951571ZM39.3905 7.47237C39.1929 7.61797 39.0213 7.76877 38.8757 7.92477C38.7405 8.08077 38.6313 8.24717 38.5481 8.42397C38.4753 8.60077 38.4389 8.79837 38.4389 9.01677C38.4389 9.46397 38.6053 9.81757 38.9381 10.0776C39.2709 10.3272 39.6869 10.452 40.1861 10.452C40.5189 10.452 40.8309 10.4104 41.1221 10.3272C41.4133 10.244 41.6785 10.1296 41.9177 9.98397L39.3905 7.47237ZM40.1861 2.74557C39.9261 2.74557 39.6765 2.81317 39.4373 2.94837C39.2085 3.07317 39.0941 3.31757 39.0941 3.68157C39.0941 3.94157 39.1565 4.19117 39.2813 4.43037C39.4165 4.66957 39.5933 4.91397 39.8117 5.16357C40.2485 4.92437 40.5813 4.68517 40.8101 4.44597C41.0493 4.20677 41.1689 3.93117 41.1689 3.61917C41.1689 3.30717 41.0649 3.08357 40.8569 2.94837C40.6489 2.81317 40.4253 2.74557 40.1861 2.74557ZM55.0373 9.15717C55.0373 9.81237 54.8761 10.3844 54.5537 10.8732C54.2313 11.362 53.7633 11.7416 53.1497 12.012C52.5465 12.272 51.8081 12.402 50.9345 12.402C50.5497 12.402 50.1701 12.376 49.7957 12.324C49.4317 12.272 49.0781 12.1992 48.7349 12.1056C48.4021 12.0016 48.0849 11.8768 47.7833 11.7312V9.53157C48.3137 9.76037 48.8597 9.97357 49.4213 10.1712C49.9933 10.3584 50.5601 10.452 51.1217 10.452C51.5065 10.452 51.8133 10.4 52.0421 10.296C52.2813 10.192 52.4529 10.0516 52.5569 9.87477C52.6713 9.69797 52.7285 9.49517 52.7285 9.26637C52.7285 8.98557 52.6297 8.74637 52.4321 8.54877C52.2449 8.35117 51.9901 8.16917 51.6677 8.00277C51.3453 7.82597 50.9761 7.63877 50.5601 7.44117C50.3001 7.31637 50.0193 7.17077 49.7177 7.00437C49.4161 6.82757 49.1249 6.61437 48.8441 6.36477C48.5737 6.10477 48.3501 5.79277 48.1733 5.42877C47.9965 5.06477 47.9081 4.62797 47.9081 4.11837C47.9081 3.45277 48.0589 2.88597 48.3605 2.41797C48.6725 1.93957 49.1093 1.57557 49.6709 1.32597C50.2429 1.07637 50.9137 0.951571 51.6833 0.951571C52.2657 0.951571 52.8169 1.01917 53.3369 1.15437C53.8673 1.28957 54.4185 1.48197 54.9905 1.73157L54.2261 3.57237C53.7165 3.36437 53.2589 3.20317 52.8533 3.08877C52.4477 2.97437 52.0317 2.91717 51.6053 2.91717C51.3141 2.91717 51.0645 2.96397 50.8565 3.05757C50.6485 3.15117 50.4873 3.28117 50.3729 3.44757C50.2689 3.61397 50.2169 3.81157 50.2169 4.04037C50.2169 4.30037 50.2949 4.52397 50.4509 4.71117C50.6069 4.88797 50.8409 5.05957 51.1529 5.22597C51.4649 5.39237 51.8549 5.58997 52.3229 5.81877C52.8949 6.08917 53.3785 6.36997 53.7737 6.66117C54.1793 6.95237 54.4913 7.29557 54.7097 7.69077C54.9281 8.08597 55.0373 8.57477 55.0373 9.15717ZM64.6122 7.97157C64.6122 8.67877 64.5134 9.30797 64.3158 9.85917C64.1286 10.4104 63.853 10.8784 63.489 11.2632C63.1354 11.6376 62.7038 11.9236 62.1942 12.1212C61.6846 12.3084 61.1074 12.402 60.4626 12.402C59.8698 12.402 59.3186 12.3084 58.809 12.1212C58.3098 11.9236 57.8782 11.6376 57.5142 11.2632C57.1502 10.8784 56.8642 10.4104 56.6562 9.85917C56.4586 9.30797 56.3598 8.67877 56.3598 7.97157C56.3598 7.02517 56.5262 6.22957 56.859 5.58477C57.1918 4.92957 57.6702 4.43037 58.2942 4.08717C58.9182 3.74397 59.6566 3.57237 60.5094 3.57237C61.3102 3.57237 62.0174 3.74397 62.631 4.08717C63.2446 4.43037 63.7282 4.92957 64.0818 5.58477C64.4354 6.22957 64.6122 7.02517 64.6122 7.97157ZM58.731 7.97157C58.731 8.53317 58.7882 9.00637 58.9026 9.39117C59.0274 9.76557 59.2198 10.0516 59.4798 10.2492C59.7398 10.4364 60.0778 10.53 60.4938 10.53C60.9098 10.53 61.2426 10.4364 61.4922 10.2492C61.7522 10.0516 61.9394 9.76557 62.0538 9.39117C62.1786 9.00637 62.241 8.53317 62.241 7.97157C62.241 7.40997 62.1786 6.94197 62.0538 6.56757C61.9394 6.19317 61.7522 5.91237 61.4922 5.72517C61.2322 5.53797 60.8942 5.44437 60.4782 5.44437C59.8646 5.44437 59.4174 5.65757 59.1366 6.08397C58.8662 6.49997 58.731 7.12917 58.731 7.97157ZM68.8576 3.72837V12.246H66.5332V3.72837H68.8576ZM67.7032 0.389971C68.0464 0.389971 68.3428 0.473171 68.5924 0.639571C68.842 0.795571 68.9668 1.09197 68.9668 1.52877C68.9668 1.95517 68.842 2.25157 68.5924 2.41797C68.3428 2.58437 68.0464 2.66757 67.7032 2.66757C67.3496 2.66757 67.048 2.58437 66.7984 2.41797C66.5592 2.25157 66.4396 1.95517 66.4396 1.52877C66.4396 1.09197 66.5592 0.795571 66.7984 0.639571C67.048 0.473171 67.3496 0.389971 67.7032 0.389971ZM73.6108 12.246H71.2864V0.389971H73.6108V12.246Z"/>
</mask>
<path d="M3.63476 1.10757C4.64356 1.10757 5.47556 1.23237 6.13076 1.48197C6.78596 1.72117 7.27476 2.09037 7.59716 2.58957C7.91956 3.07837 8.08076 3.69717 8.08076 4.44597C8.08076 4.95557 7.98196 5.40277 7.78436 5.78757C7.59716 6.16197 7.34236 6.48437 7.01996 6.75477C6.70796 7.01477 6.36996 7.22797 6.00596 7.39437L9.28196 12.246H6.66116L4.00916 7.97157H2.74556V12.246H0.389962V1.10757H3.63476ZM3.46316 3.04197H2.74556V6.05277H3.50996C4.02996 6.05277 4.45116 5.99557 4.77356 5.88117C5.09596 5.76677 5.32996 5.59517 5.47556 5.36637C5.62116 5.12717 5.69396 4.84117 5.69396 4.50837C5.69396 4.15477 5.61076 3.87397 5.44436 3.66597C5.28836 3.44757 5.04396 3.29157 4.71116 3.19797C4.38876 3.09397 3.97276 3.04197 3.46316 3.04197ZM18.2388 7.97157C18.2388 8.67877 18.14 9.30797 17.9424 9.85917C17.7552 10.4104 17.4796 10.8784 17.1156 11.2632C16.762 11.6376 16.3304 11.9236 15.8208 12.1212C15.3112 12.3084 14.734 12.402 14.0892 12.402C13.4964 12.402 12.9452 12.3084 12.4356 12.1212C11.9364 11.9236 11.5048 11.6376 11.1408 11.2632C10.7768 10.8784 10.4908 10.4104 10.2828 9.85917C10.0852 9.30797 9.9864 8.67877 9.9864 7.97157C9.9864 7.02517 10.1528 6.22957 10.4856 5.58477C10.8184 4.92957 11.2968 4.43037 11.9208 4.08717C12.5448 3.74397 13.2832 3.57237 14.136 3.57237C14.9368 3.57237 15.644 3.74397 16.2576 4.08717C16.8712 4.43037 17.3548 4.92957 17.7084 5.58477C18.062 6.22957 18.2388 7.02517 18.2388 7.97157ZM12.3576 7.97157C12.3576 8.53317 12.4148 9.00637 12.5292 9.39117C12.654 9.76557 12.8464 10.0516 13.1064 10.2492C13.3664 10.4364 13.7044 10.53 14.1204 10.53C14.5364 10.53 14.8692 10.4364 15.1188 10.2492C15.3788 10.0516 15.566 9.76557 15.6804 9.39117C15.8052 9.00637 15.8676 8.53317 15.8676 7.97157C15.8676 7.40997 15.8052 6.94197 15.6804 6.56757C15.566 6.19317 15.3788 5.91237 15.1188 5.72517C14.8588 5.53797 14.5208 5.44437 14.1048 5.44437C13.4912 5.44437 13.044 5.65757 12.7632 6.08397C12.4928 6.49997 12.3576 7.12917 12.3576 7.97157ZM27.8974 7.97157C27.8974 8.67877 27.7986 9.30797 27.601 9.85917C27.4138 10.4104 27.1382 10.8784 26.7742 11.2632C26.4206 11.6376 25.989 11.9236 25.4794 12.1212C24.9698 12.3084 24.3926 12.402 23.7478 12.402C23.155 12.402 22.6038 12.3084 22.0942 12.1212C21.595 11.9236 21.1634 11.6376 20.7994 11.2632C20.4354 10.8784 20.1494 10.4104 19.9414 9.85917C19.7438 9.30797 19.645 8.67877 19.645 7.97157C19.645 7.02517 19.8114 6.22957 20.1442 5.58477C20.477 4.92957 20.9554 4.43037 21.5794 4.08717C22.2034 3.74397 22.9418 3.57237 23.7946 3.57237C24.5954 3.57237 25.3026 3.74397 25.9162 4.08717C26.5298 4.43037 27.0134 4.92957 27.367 5.58477C27.7206 6.22957 27.8974 7.02517 27.8974 7.97157ZM22.0162 7.97157C22.0162 8.53317 22.0734 9.00637 22.1878 9.39117C22.3126 9.76557 22.505 10.0516 22.765 10.2492C23.025 10.4364 23.363 10.53 23.779 10.53C24.195 10.53 24.5278 10.4364 24.7774 10.2492C25.0374 10.0516 25.2246 9.76557 25.339 9.39117C25.4638 9.00637 25.5262 8.53317 25.5262 7.97157C25.5262 7.40997 25.4638 6.94197 25.339 6.56757C25.2246 6.19317 25.0374 5.91237 24.7774 5.72517C24.5174 5.53797 24.1794 5.44437 23.7634 5.44437C23.1498 5.44437 22.7026 5.65757 22.4218 6.08397C22.1514 6.49997 22.0162 7.12917 22.0162 7.97157ZM33.4064 10.5456C33.6664 10.5456 33.916 10.5196 34.1552 10.4676C34.3944 10.4156 34.6336 10.3532 34.8728 10.2804V12.012C34.6232 12.116 34.3112 12.2044 33.9368 12.2772C33.5728 12.3604 33.1724 12.402 32.7356 12.402C32.226 12.402 31.7684 12.3188 31.3628 12.1524C30.9676 11.986 30.6504 11.7 30.4112 11.2944C30.1824 10.8784 30.068 10.3064 30.068 9.57837V5.47557H28.9604V4.49277L30.2396 3.71277L30.9104 1.91877H32.3924V3.72837H34.7792V5.47557H32.3924V9.57837C32.3924 9.90077 32.486 10.1452 32.6732 10.3116C32.8604 10.4676 33.1048 10.5456 33.4064 10.5456ZM40.2017 0.951571C40.8049 0.951571 41.3405 1.04517 41.8085 1.23237C42.2765 1.41957 42.6457 1.69517 42.9161 2.05917C43.1865 2.41277 43.3217 2.84957 43.3217 3.36957C43.3217 4.08717 43.1085 4.69037 42.6821 5.17917C42.2557 5.66797 41.7253 6.09437 41.0909 6.45837L43.2593 8.56437C43.4673 8.21077 43.6493 7.84157 43.8053 7.45677C43.9613 7.06157 44.0913 6.66637 44.1953 6.27117H46.6133C46.4573 6.85357 46.2285 7.47757 45.9269 8.14317C45.6253 8.80877 45.2405 9.43277 44.7725 10.0152L47.0657 12.246H44.1953L43.3217 11.388C43.0929 11.544 42.8537 11.6844 42.6041 11.8092C42.3545 11.934 42.0945 12.0432 41.8241 12.1368C41.5537 12.22 41.2677 12.2824 40.9661 12.324C40.6645 12.376 40.3525 12.402 40.0301 12.402C39.1877 12.402 38.4649 12.272 37.8617 12.012C37.2585 11.7416 36.7957 11.3672 36.4733 10.8888C36.1509 10.4104 35.9897 9.85917 35.9897 9.23517C35.9897 8.70477 36.0677 8.25237 36.2237 7.87797C36.3901 7.49317 36.6241 7.16037 36.9257 6.87957C37.2377 6.58837 37.6069 6.32317 38.0333 6.08397C37.7629 5.77197 37.5445 5.48077 37.3781 5.21037C37.2221 4.92957 37.1077 4.65397 37.0349 4.38357C36.9725 4.11317 36.9413 3.82717 36.9413 3.52557C36.9413 2.99517 37.0765 2.53757 37.3469 2.15277C37.6277 1.76797 38.0125 1.47157 38.5013 1.26357C39.0005 1.05557 39.5673 0.951571 40.2017 0.951571ZM39.3905 7.47237C39.1929 7.61797 39.0213 7.76877 38.8757 7.92477C38.7405 8.08077 38.6313 8.24717 38.5481 8.42397C38.4753 8.60077 38.4389 8.79837 38.4389 9.01677C38.4389 9.46397 38.6053 9.81757 38.9381 10.0776C39.2709 10.3272 39.6869 10.452 40.1861 10.452C40.5189 10.452 40.8309 10.4104 41.1221 10.3272C41.4133 10.244 41.6785 10.1296 41.9177 9.98397L39.3905 7.47237ZM40.1861 2.74557C39.9261 2.74557 39.6765 2.81317 39.4373 2.94837C39.2085 3.07317 39.0941 3.31757 39.0941 3.68157C39.0941 3.94157 39.1565 4.19117 39.2813 4.43037C39.4165 4.66957 39.5933 4.91397 39.8117 5.16357C40.2485 4.92437 40.5813 4.68517 40.8101 4.44597C41.0493 4.20677 41.1689 3.93117 41.1689 3.61917C41.1689 3.30717 41.0649 3.08357 40.8569 2.94837C40.6489 2.81317 40.4253 2.74557 40.1861 2.74557ZM55.0373 9.15717C55.0373 9.81237 54.8761 10.3844 54.5537 10.8732C54.2313 11.362 53.7633 11.7416 53.1497 12.012C52.5465 12.272 51.8081 12.402 50.9345 12.402C50.5497 12.402 50.1701 12.376 49.7957 12.324C49.4317 12.272 49.0781 12.1992 48.7349 12.1056C48.4021 12.0016 48.0849 11.8768 47.7833 11.7312V9.53157C48.3137 9.76037 48.8597 9.97357 49.4213 10.1712C49.9933 10.3584 50.5601 10.452 51.1217 10.452C51.5065 10.452 51.8133 10.4 52.0421 10.296C52.2813 10.192 52.4529 10.0516 52.5569 9.87477C52.6713 9.69797 52.7285 9.49517 52.7285 9.26637C52.7285 8.98557 52.6297 8.74637 52.4321 8.54877C52.2449 8.35117 51.9901 8.16917 51.6677 8.00277C51.3453 7.82597 50.9761 7.63877 50.5601 7.44117C50.3001 7.31637 50.0193 7.17077 49.7177 7.00437C49.4161 6.82757 49.1249 6.61437 48.8441 6.36477C48.5737 6.10477 48.3501 5.79277 48.1733 5.42877C47.9965 5.06477 47.9081 4.62797 47.9081 4.11837C47.9081 3.45277 48.0589 2.88597 48.3605 2.41797C48.6725 1.93957 49.1093 1.57557 49.6709 1.32597C50.2429 1.07637 50.9137 0.951571 51.6833 0.951571C52.2657 0.951571 52.8169 1.01917 53.3369 1.15437C53.8673 1.28957 54.4185 1.48197 54.9905 1.73157L54.2261 3.57237C53.7165 3.36437 53.2589 3.20317 52.8533 3.08877C52.4477 2.97437 52.0317 2.91717 51.6053 2.91717C51.3141 2.91717 51.0645 2.96397 50.8565 3.05757C50.6485 3.15117 50.4873 3.28117 50.3729 3.44757C50.2689 3.61397 50.2169 3.81157 50.2169 4.04037C50.2169 4.30037 50.2949 4.52397 50.4509 4.71117C50.6069 4.88797 50.8409 5.05957 51.1529 5.22597C51.4649 5.39237 51.8549 5.58997 52.3229 5.81877C52.8949 6.08917 53.3785 6.36997 53.7737 6.66117C54.1793 6.95237 54.4913 7.29557 54.7097 7.69077C54.9281 8.08597 55.0373 8.57477 55.0373 9.15717ZM64.6122 7.97157C64.6122 8.67877 64.5134 9.30797 64.3158 9.85917C64.1286 10.4104 63.853 10.8784 63.489 11.2632C63.1354 11.6376 62.7038 11.9236 62.1942 12.1212C61.6846 12.3084 61.1074 12.402 60.4626 12.402C59.8698 12.402 59.3186 12.3084 58.809 12.1212C58.3098 11.9236 57.8782 11.6376 57.5142 11.2632C57.1502 10.8784 56.8642 10.4104 56.6562 9.85917C56.4586 9.30797 56.3598 8.67877 56.3598 7.97157C56.3598 7.02517 56.5262 6.22957 56.859 5.58477C57.1918 4.92957 57.6702 4.43037 58.2942 4.08717C58.9182 3.74397 59.6566 3.57237 60.5094 3.57237C61.3102 3.57237 62.0174 3.74397 62.631 4.08717C63.2446 4.43037 63.7282 4.92957 64.0818 5.58477C64.4354 6.22957 64.6122 7.02517 64.6122 7.97157ZM58.731 7.97157C58.731 8.53317 58.7882 9.00637 58.9026 9.39117C59.0274 9.76557 59.2198 10.0516 59.4798 10.2492C59.7398 10.4364 60.0778 10.53 60.4938 10.53C60.9098 10.53 61.2426 10.4364 61.4922 10.2492C61.7522 10.0516 61.9394 9.76557 62.0538 9.39117C62.1786 9.00637 62.241 8.53317 62.241 7.97157C62.241 7.40997 62.1786 6.94197 62.0538 6.56757C61.9394 6.19317 61.7522 5.91237 61.4922 5.72517C61.2322 5.53797 60.8942 5.44437 60.4782 5.44437C59.8646 5.44437 59.4174 5.65757 59.1366 6.08397C58.8662 6.49997 58.731 7.12917 58.731 7.97157ZM68.8576 3.72837V12.246H66.5332V3.72837H68.8576ZM67.7032 0.389971C68.0464 0.389971 68.3428 0.473171 68.5924 0.639571C68.842 0.795571 68.9668 1.09197 68.9668 1.52877C68.9668 1.95517 68.842 2.25157 68.5924 2.41797C68.3428 2.58437 68.0464 2.66757 67.7032 2.66757C67.3496 2.66757 67.048 2.58437 66.7984 2.41797C66.5592 2.25157 66.4396 1.95517 66.4396 1.52877C66.4396 1.09197 66.5592 0.795571 66.7984 0.639571C67.048 0.473171 67.3496 0.389971 67.7032 0.389971ZM73.6108 12.246H71.2864V0.389971H73.6108V12.246Z" fill="#4F39F6"/>
<path d="M6.13076 1.48197L5.99191 1.84646L5.99702 1.84832L6.13076 1.48197ZM7.59716 2.58957L7.26953 2.80117L7.2716 2.8043L7.59716 2.58957ZM7.78436 5.78757L7.43741 5.60941L7.43554 5.61316L7.78436 5.78757ZM7.01996 6.75477L7.26964 7.05438L7.27058 7.05359L7.01996 6.75477ZM6.00596 7.39437L5.84382 7.03968L5.42512 7.23108L5.68275 7.61262L6.00596 7.39437ZM9.28196 12.246V12.636H10.0159L9.60518 12.0277L9.28196 12.246ZM6.66116 12.246L6.32977 12.4516L6.44417 12.636H6.66116V12.246ZM4.00916 7.97157L4.34056 7.76596L4.22616 7.58157H4.00916V7.97157ZM2.74556 7.97157V7.58157H2.35556V7.97157H2.74556ZM2.74556 12.246V12.636H3.13556V12.246H2.74556ZM0.389962 12.246H-3.80278e-05V12.636H0.389962V12.246ZM0.389962 1.10757V0.71757H-3.80278e-05V1.10757H0.389962ZM2.74556 3.04197V2.65197H2.35556V3.04197H2.74556ZM2.74556 6.05277H2.35556V6.44277H2.74556V6.05277ZM4.77356 5.88117L4.90398 6.24872V6.24872L4.77356 5.88117ZM5.47556 5.36637L5.80466 5.57579L5.8087 5.56915L5.47556 5.36637ZM5.44436 3.66597L5.12701 3.89265L5.13318 3.9013L5.13982 3.9096L5.44436 3.66597ZM4.71116 3.19797L4.59143 3.56914L4.59846 3.5714L4.60557 3.5734L4.71116 3.19797ZM3.63476 1.10757V1.49757C4.61519 1.49757 5.39594 1.61938 5.99192 1.84642L6.13076 1.48197L6.2696 1.11752C5.55518 0.84536 4.67194 0.71757 3.63476 0.71757V1.10757ZM6.13076 1.48197L5.99702 1.84832C6.58683 2.06365 7.00086 2.38512 7.26955 2.80116L7.59716 2.58957L7.92478 2.37799C7.54867 1.79562 6.98509 1.37869 6.26451 1.11562L6.13076 1.48197ZM7.59716 2.58957L7.2716 2.8043C7.54167 3.21376 7.69076 3.75238 7.69076 4.44597H8.08076H8.47076C8.47076 3.64197 8.29745 2.94298 7.92272 2.37484L7.59716 2.58957ZM8.08076 4.44597H7.69076C7.69076 4.90461 7.60209 5.28876 7.43743 5.60942L7.78436 5.78757L8.13129 5.96572C8.36183 5.51678 8.47076 5.00653 8.47076 4.44597H8.08076ZM7.78436 5.78757L7.43554 5.61316C7.27234 5.93955 7.05106 6.21968 6.76934 6.45596L7.01996 6.75477L7.27058 7.05359C7.63367 6.74906 7.92198 6.38439 8.13319 5.96198L7.78436 5.78757ZM7.01996 6.75477L6.77029 6.45516C6.48449 6.69333 6.17586 6.88789 5.84382 7.03968L6.00596 7.39437L6.16811 7.74907C6.56407 7.56806 6.93143 7.33621 7.26963 7.05438L7.01996 6.75477ZM6.00596 7.39437L5.68275 7.61262L8.95875 12.4642L9.28196 12.246L9.60518 12.0277L6.32918 7.17612L6.00596 7.39437ZM9.28196 12.246V11.856H6.66116V12.246V12.636H9.28196V12.246ZM6.66116 12.246L6.99256 12.0404L4.34056 7.76596L4.00916 7.97157L3.67777 8.17718L6.32977 12.4516L6.66116 12.246ZM4.00916 7.97157V7.58157H2.74556V7.97157V8.36157H4.00916V7.97157ZM2.74556 7.97157H2.35556V12.246H2.74556H3.13556V7.97157H2.74556ZM2.74556 12.246V11.856H0.389962V12.246V12.636H2.74556V12.246ZM0.389962 12.246H0.779962V1.10757H0.389962H-3.80278e-05V12.246H0.389962ZM0.389962 1.10757V1.49757H3.63476V1.10757V0.71757H0.389962V1.10757ZM3.46316 3.04197V2.65197H2.74556V3.04197V3.43197H3.46316V3.04197ZM2.74556 3.04197H2.35556V6.05277H2.74556H3.13556V3.04197H2.74556ZM2.74556 6.05277V6.44277H3.50996V6.05277V5.66277H2.74556V6.05277ZM3.50996 6.05277V6.44277C4.05373 6.44277 4.52387 6.3836 4.90398 6.24872L4.77356 5.88117L4.64314 5.51362C4.37845 5.60755 4.00619 5.66277 3.50996 5.66277V6.05277ZM4.77356 5.88117L4.90398 6.24872C5.28657 6.11296 5.60122 5.89533 5.80459 5.57575L5.47556 5.36637L5.14653 5.15699C5.0587 5.29501 4.90535 5.42058 4.64314 5.51362L4.77356 5.88117ZM5.47556 5.36637L5.8087 5.56915C5.99798 5.25819 6.08396 4.8991 6.08396 4.50837H5.69396H5.30396C5.30396 4.78324 5.24435 4.99615 5.14242 5.16359L5.47556 5.36637ZM5.69396 4.50837H6.08396C6.08396 4.09529 5.9864 3.71921 5.7489 3.42234L5.44436 3.66597L5.13982 3.9096C5.23513 4.02873 5.30396 4.21425 5.30396 4.50837H5.69396ZM5.44436 3.66597L5.76172 3.43929C5.54084 3.13005 5.21006 2.93316 4.81675 2.82254L4.71116 3.19797L4.60557 3.5734C4.87786 3.64999 5.03589 3.76509 5.12701 3.89265L5.44436 3.66597ZM4.71116 3.19797L4.83089 2.8268C4.45554 2.70572 3.99507 2.65197 3.46316 2.65197V3.04197V3.43197C3.95046 3.43197 4.32198 3.48222 4.59143 3.56914L4.71116 3.19797ZM17.9424 9.85917L17.5752 9.72754L17.5731 9.73375L17.9424 9.85917ZM17.1156 11.2632L16.8323 10.9952L16.8321 10.9954L17.1156 11.2632ZM15.8208 12.1212L15.9553 12.4873L15.9618 12.4848L15.8208 12.1212ZM12.4356 12.1212L12.292 12.4839L12.3011 12.4873L12.4356 12.1212ZM11.1408 11.2632L10.8575 11.5312L10.8612 11.535L11.1408 11.2632ZM10.2828 9.85917L9.91563 9.9908L9.91792 9.99686L10.2828 9.85917ZM10.4856 5.58477L10.8322 5.76365L10.8333 5.76139L10.4856 5.58477ZM11.9208 4.08717L12.1087 4.4289H12.1087L11.9208 4.08717ZM16.2576 4.08717L16.0672 4.42755V4.42755L16.2576 4.08717ZM17.7084 5.58477L17.3652 5.77L17.3664 5.7723L17.7084 5.58477ZM12.5292 9.39117L12.1552 9.50237L12.1592 9.5145L12.5292 9.39117ZM13.1064 10.2492L12.8703 10.5598L12.8785 10.5657L13.1064 10.2492ZM15.1188 10.2492L15.3528 10.5612L15.3548 10.5597L15.1188 10.2492ZM15.6804 9.39117L15.3094 9.27084L15.3074 9.27721L15.6804 9.39117ZM15.6804 6.56757L15.3073 6.68157L15.3104 6.6909L15.6804 6.56757ZM12.7632 6.08397L12.4375 5.86947L12.4362 5.87143L12.7632 6.08397ZM18.2388 7.97157H17.8488C17.8488 8.64295 17.755 9.22633 17.5753 9.72756L17.9424 9.85917L18.3095 9.99078C18.525 9.38961 18.6288 8.71459 18.6288 7.97157H18.2388ZM17.9424 9.85917L17.5731 9.73375C17.4022 10.2371 17.154 10.655 16.8323 10.9952L17.1156 11.2632L17.3989 11.5312C17.8052 11.1017 18.1082 10.5836 18.3117 9.98459L17.9424 9.85917ZM17.1156 11.2632L16.8321 10.9954C16.5207 11.3251 16.1387 11.5796 15.6798 11.7576L15.8208 12.1212L15.9618 12.4848C16.5221 12.2675 17.0033 11.9501 17.3991 11.531L17.1156 11.2632ZM15.8208 12.1212L15.6863 11.7551C15.227 11.9238 14.6965 12.012 14.0892 12.012V12.402V12.792C14.7715 12.792 15.3954 12.6929 15.9553 12.4873L15.8208 12.1212ZM14.0892 12.402V12.012C13.5381 12.012 13.0328 11.9251 12.5701 11.7551L12.4356 12.1212L12.3011 12.4873C12.8576 12.6917 13.4547 12.792 14.0892 12.792V12.402ZM12.4356 12.1212L12.5791 11.7585C12.1297 11.5807 11.7449 11.325 11.4204 10.9913L11.1408 11.2632L10.8612 11.535C11.2647 11.9501 11.7431 12.2665 12.2921 12.4838L12.4356 12.1212ZM11.1408 11.2632L11.4241 10.9952C11.0995 10.652 10.8395 10.2297 10.6477 9.72148L10.2828 9.85917L9.91792 9.99686C10.1421 10.591 10.4541 11.1048 10.8575 11.5312L11.1408 11.2632ZM10.2828 9.85917L10.6499 9.72756C10.4702 9.22633 10.3764 8.64295 10.3764 7.97157H9.9864H9.5964C9.5964 8.71459 9.70016 9.38961 9.91568 9.99078L10.2828 9.85917ZM9.9864 7.97157H10.3764C10.3764 7.06912 10.5353 6.3389 10.8322 5.76364L10.4856 5.58477L10.139 5.4059C9.77035 6.12024 9.5964 6.98122 9.5964 7.97157H9.9864ZM10.4856 5.58477L10.8333 5.76139C11.1318 5.17365 11.5557 4.73309 12.1087 4.4289L11.9208 4.08717L11.7329 3.74545C11.0379 4.12765 10.505 4.68549 10.1379 5.40815L10.4856 5.58477ZM11.9208 4.08717L12.1087 4.4289C12.6648 4.12307 13.336 3.96237 14.136 3.96237V3.57237V3.18237C13.2304 3.18237 12.4248 3.36487 11.7329 3.74545L11.9208 4.08717ZM14.136 3.57237V3.96237C14.8795 3.96237 15.5195 4.12119 16.0672 4.42755L16.2576 4.08717L16.448 3.7468C15.7685 3.36676 14.9941 3.18237 14.136 3.18237V3.57237ZM16.2576 4.08717L16.0672 4.42755C16.6123 4.73242 17.0446 5.17595 17.3652 5.76999L17.7084 5.58477L18.0516 5.39955C17.665 4.68319 17.1301 4.12832 16.448 3.7468L16.2576 4.08717ZM17.7084 5.58477L17.3664 5.7723C17.6808 6.34545 17.8488 7.0724 17.8488 7.97157H18.2388H18.6288C18.6288 6.97795 18.4432 6.1137 18.0504 5.39725L17.7084 5.58477ZM12.3576 7.97157H11.9676C11.9676 8.55704 12.0269 9.07027 12.1554 9.50231L12.5292 9.39117L12.903 9.28003C12.8027 8.94248 12.7476 8.50931 12.7476 7.97157H12.3576ZM12.5292 9.39117L12.1592 9.5145C12.3036 9.94759 12.5359 10.3054 12.8704 10.5597L13.1064 10.2492L13.3424 9.93867C13.1569 9.7977 13.0044 9.58355 12.8992 9.26784L12.5292 9.39117ZM13.1064 10.2492L12.8785 10.5657C13.2222 10.8132 13.647 10.92 14.1204 10.92V10.53V10.14C13.7618 10.14 13.5106 10.0596 13.3343 9.93267L13.1064 10.2492ZM14.1204 10.53V10.92C14.5929 10.92 15.0163 10.8135 15.3528 10.5612L15.1188 10.2492L14.8848 9.93717C14.7221 10.0592 14.4799 10.14 14.1204 10.14V10.53ZM15.1188 10.2492L15.3548 10.5597C15.6921 10.3034 15.9199 9.94187 16.0534 9.50514L15.6804 9.39117L15.3074 9.27721C15.2121 9.58927 15.0655 9.79979 14.8828 9.93867L15.1188 10.2492ZM15.6804 9.39117L16.0514 9.51149C16.1926 9.076 16.2576 8.5594 16.2576 7.97157H15.8676H15.4776C15.4776 8.50694 15.4178 8.93674 15.3094 9.27085L15.6804 9.39117ZM15.8676 7.97157H16.2576C16.2576 7.38427 16.1927 6.87133 16.0504 6.44424L15.6804 6.56757L15.3104 6.6909C15.4177 7.01262 15.4776 7.43567 15.4776 7.97157H15.8676ZM15.6804 6.56757L16.0534 6.45361C15.9197 6.01619 15.6901 5.65595 15.3467 5.40867L15.1188 5.72517L14.8909 6.04167C15.0675 6.16879 15.2123 6.37016 15.3074 6.68154L15.6804 6.56757ZM15.1188 5.72517L15.3467 5.40867C15.003 5.16119 14.5782 5.05437 14.1048 5.05437V5.44437V5.83437C14.4634 5.83437 14.7146 5.91475 14.8909 6.04167L15.1188 5.72517ZM14.1048 5.44437V5.05437C13.3905 5.05437 12.8057 5.3103 12.4375 5.86947L12.7632 6.08397L13.0889 6.29847C13.2823 6.00485 13.5919 5.83437 14.1048 5.83437V5.44437ZM12.7632 6.08397L12.4362 5.87143C12.105 6.38097 11.9676 7.10054 11.9676 7.97157H12.3576H12.7476C12.7476 7.1578 12.8806 6.61898 13.0902 6.29652L12.7632 6.08397ZM27.601 9.85917L27.2338 9.72754L27.2317 9.73375L27.601 9.85917ZM26.7742 11.2632L26.4909 10.9952L26.4907 10.9954L26.7742 11.2632ZM25.4794 12.1212L25.6139 12.4873L25.6204 12.4848L25.4794 12.1212ZM22.0942 12.1212L21.9506 12.4839L21.9597 12.4873L22.0942 12.1212ZM20.7994 11.2632L20.516 11.5312L20.5198 11.535L20.7994 11.2632ZM19.9414 9.85917L19.5742 9.9908L19.5765 9.99686L19.9414 9.85917ZM20.1442 5.58477L20.4908 5.76365L20.4919 5.76139L20.1442 5.58477ZM21.5794 4.08717L21.7673 4.4289V4.4289L21.5794 4.08717ZM25.9162 4.08717L25.7258 4.42755V4.42755L25.9162 4.08717ZM27.367 5.58477L27.0238 5.77L27.025 5.7723L27.367 5.58477ZM22.1878 9.39117L21.8138 9.50237L21.8178 9.5145L22.1878 9.39117ZM22.765 10.2492L22.5289 10.5598L22.5371 10.5657L22.765 10.2492ZM24.7774 10.2492L25.0114 10.5612L25.0134 10.5597L24.7774 10.2492ZM25.339 9.39117L24.968 9.27084L24.966 9.27721L25.339 9.39117ZM25.339 6.56757L24.9659 6.68157L24.969 6.6909L25.339 6.56757ZM22.4218 6.08397L22.0961 5.86947L22.0948 5.87143L22.4218 6.08397ZM27.8974 7.97157H27.5074C27.5074 8.64295 27.4136 9.22633 27.2339 9.72756L27.601 9.85917L27.9681 9.99078C28.1836 9.38961 28.2874 8.71459 28.2874 7.97157H27.8974ZM27.601 9.85917L27.2317 9.73375C27.0608 10.2371 26.8126 10.655 26.4909 10.9952L26.7742 11.2632L27.0575 11.5312C27.4638 11.1017 27.7668 10.5836 27.9703 9.98459L27.601 9.85917ZM26.7742 11.2632L26.4907 10.9954C26.1793 11.3251 25.7973 11.5796 25.3384 11.7576L25.4794 12.1212L25.6204 12.4848C26.1806 12.2675 26.6619 11.9501 27.0577 11.531L26.7742 11.2632ZM25.4794 12.1212L25.3449 11.7551C24.8856 11.9238 24.3551 12.012 23.7478 12.012V12.402V12.792C24.4301 12.792 25.054 12.6929 25.6139 12.4873L25.4794 12.1212ZM23.7478 12.402V12.012C23.1967 12.012 22.6914 11.9251 22.2287 11.7551L22.0942 12.1212L21.9597 12.4873C22.5162 12.6917 23.1133 12.792 23.7478 12.792V12.402ZM22.0942 12.1212L22.2377 11.7585C21.7883 11.5807 21.4035 11.325 21.079 10.9913L20.7994 11.2632L20.5198 11.535C20.9233 11.9501 21.4017 12.2665 21.9507 12.4838L22.0942 12.1212ZM20.7994 11.2632L21.0827 10.9952C20.7581 10.652 20.4981 10.2297 20.3063 9.72148L19.9414 9.85917L19.5765 9.99686C19.8007 10.591 20.1127 11.1048 20.5161 11.5312L20.7994 11.2632ZM19.9414 9.85917L20.3085 9.72756C20.1288 9.22633 20.035 8.64295 20.035 7.97157H19.645H19.255C19.255 8.71459 19.3588 9.38961 19.5743 9.99078L19.9414 9.85917ZM19.645 7.97157H20.035C20.035 7.06912 20.1938 6.3389 20.4908 5.76364L20.1442 5.58477L19.7976 5.4059C19.4289 6.12024 19.255 6.98122 19.255 7.97157H19.645ZM20.1442 5.58477L20.4919 5.76139C20.7904 5.17365 21.2143 4.73309 21.7673 4.4289L21.5794 4.08717L21.3914 3.74545C20.6965 4.12765 20.1635 4.68549 19.7965 5.40815L20.1442 5.58477ZM21.5794 4.08717L21.7673 4.4289C22.3234 4.12307 22.9946 3.96237 23.7946 3.96237V3.57237V3.18237C22.889 3.18237 22.0834 3.36487 21.3914 3.74545L21.5794 4.08717ZM23.7946 3.57237V3.96237C24.5381 3.96237 25.1781 4.12119 25.7258 4.42755L25.9162 4.08717L26.1066 3.7468C25.4271 3.36676 24.6527 3.18237 23.7946 3.18237V3.57237ZM25.9162 4.08717L25.7258 4.42755C26.2709 4.73242 26.7032 5.17595 27.0238 5.76999L27.367 5.58477L27.7102 5.39955C27.3236 4.68319 26.7887 4.12832 26.1066 3.7468L25.9162 4.08717ZM27.367 5.58477L27.025 5.7723C27.3393 6.34545 27.5074 7.0724 27.5074 7.97157H27.8974H28.2874C28.2874 6.97795 28.1018 6.1137 27.709 5.39725L27.367 5.58477ZM22.0162 7.97157H21.6262C21.6262 8.55704 21.6855 9.07027 21.814 9.50231L22.1878 9.39117L22.5616 9.28003C22.4613 8.94248 22.4062 8.50931 22.4062 7.97157H22.0162ZM22.1878 9.39117L21.8178 9.5145C21.9622 9.94759 22.1945 10.3054 22.529 10.5597L22.765 10.2492L23.001 9.93867C22.8155 9.7977 22.663 9.58355 22.5578 9.26784L22.1878 9.39117ZM22.765 10.2492L22.5371 10.5657C22.8808 10.8132 23.3056 10.92 23.779 10.92V10.53V10.14C23.4204 10.14 23.1691 10.0596 22.9929 9.93267L22.765 10.2492ZM23.779 10.53V10.92C24.2514 10.92 24.6749 10.8135 25.0114 10.5612L24.7774 10.2492L24.5434 9.93717C24.3807 10.0592 24.1385 10.14 23.779 10.14V10.53ZM24.7774 10.2492L25.0134 10.5597C25.3506 10.3034 25.5785 9.94187 25.712 9.50514L25.339 9.39117L24.966 9.27721C24.8707 9.58927 24.7241 9.79979 24.5414 9.93867L24.7774 10.2492ZM25.339 9.39117L25.71 9.51149C25.8512 9.076 25.9162 8.5594 25.9162 7.97157H25.5262H25.1362C25.1362 8.50694 25.0764 8.93674 24.968 9.27085L25.339 9.39117ZM25.5262 7.97157H25.9162C25.9162 7.38427 25.8513 6.87133 25.709 6.44424L25.339 6.56757L24.969 6.6909C25.0762 7.01262 25.1362 7.43567 25.1362 7.97157H25.5262ZM25.339 6.56757L25.712 6.45361C25.5783 6.01619 25.3487 5.65595 25.0053 5.40867L24.7774 5.72517L24.5495 6.04167C24.7261 6.16879 24.8709 6.37016 24.966 6.68154L25.339 6.56757ZM24.7774 5.72517L25.0053 5.40867C24.6615 5.16119 24.2368 5.05437 23.7634 5.05437V5.44437V5.83437C24.122 5.83437 24.3732 5.91475 24.5495 6.04167L24.7774 5.72517ZM23.7634 5.44437V5.05437C23.0491 5.05437 22.4643 5.3103 22.0961 5.86947L22.4218 6.08397L22.7475 6.29847C22.9409 6.00485 23.2505 5.83437 23.7634 5.83437V5.44437ZM22.4218 6.08397L22.0948 5.87143C21.7636 6.38097 21.6262 7.10054 21.6262 7.97157H22.0162H22.4062C22.4062 7.1578 22.5392 6.61898 22.7488 6.29652L22.4218 6.08397ZM34.1552 10.4676L34.0723 10.0865V10.0865L34.1552 10.4676ZM34.8728 10.2804H35.2628V9.75401L34.7592 9.90727L34.8728 10.2804ZM34.8728 12.012L35.0228 12.372L35.2628 12.272V12.012H34.8728ZM33.9368 12.2772L33.8623 11.8941L33.8499 11.897L33.9368 12.2772ZM31.3628 12.1524L31.2114 12.5118L31.2148 12.5132L31.3628 12.1524ZM30.4112 11.2944L30.0693 11.4824L30.0753 11.4925L30.4112 11.2944ZM30.068 5.47557H30.458V5.08557H30.068V5.47557ZM28.9604 5.47557H28.5704V5.86557H28.9604V5.47557ZM28.9604 4.49277L28.7574 4.15979L28.5704 4.27379V4.49277H28.9604ZM30.2396 3.71277L30.4426 4.04575L30.5577 3.97559L30.6049 3.84936L30.2396 3.71277ZM30.9104 1.91877V1.52877H30.6398L30.5451 1.78218L30.9104 1.91877ZM32.3924 1.91877H32.7824V1.52877H32.3924V1.91877ZM32.3924 3.72837H32.0024V4.11837H32.3924V3.72837ZM34.7792 3.72837H35.1692V3.33837H34.7792V3.72837ZM34.7792 5.47557V5.86557H35.1692V5.47557H34.7792ZM32.3924 5.47557V5.08557H32.0024V5.47557H32.3924ZM32.6732 10.3116L32.414 10.6032L32.4235 10.6112L32.6732 10.3116ZM33.4064 10.5456V10.9356C33.6925 10.9356 33.97 10.9069 34.238 10.8487L34.1552 10.4676L34.0723 10.0865C33.862 10.1322 33.6403 10.1556 33.4064 10.1556V10.5456ZM34.1552 10.4676L34.238 10.8487C34.4878 10.7944 34.7372 10.7293 34.9863 10.6535L34.8728 10.2804L34.7592 9.90727C34.5299 9.97705 34.301 10.0368 34.0723 10.0865L34.1552 10.4676ZM34.8728 10.2804H34.4828V12.012H34.8728H35.2628V10.2804H34.8728ZM34.8728 12.012L34.7228 11.652C34.5052 11.7426 34.2205 11.8247 33.8624 11.8943L33.9368 12.2772L34.0112 12.66C34.4019 12.584 34.7412 12.4893 35.0228 12.372L34.8728 12.012ZM33.9368 12.2772L33.8499 11.897C33.5187 11.9727 33.1479 12.012 32.7356 12.012V12.402V12.792C33.1968 12.792 33.6269 12.7481 34.0237 12.6574L33.9368 12.2772ZM32.7356 12.402V12.012C32.2686 12.012 31.8625 11.9358 31.5108 11.7916L31.3628 12.1524L31.2148 12.5132C31.6743 12.7017 32.1834 12.792 32.7356 12.792V12.402ZM31.3628 12.1524L31.5141 11.7929C31.2038 11.6623 30.9481 11.4371 30.7471 11.0963L30.4112 11.2944L30.0753 11.4925C30.3526 11.9628 30.7313 12.3097 31.2114 12.5118L31.3628 12.1524ZM30.4112 11.2944L30.7529 11.1064C30.5683 10.7707 30.458 10.2727 30.458 9.57837H30.068H29.678C29.678 10.34 29.7965 10.986 30.0695 11.4823L30.4112 11.2944ZM30.068 9.57837H30.458V5.47557H30.068H29.678V9.57837H30.068ZM30.068 5.47557V5.08557H28.9604V5.47557V5.86557H30.068V5.47557ZM28.9604 5.47557H29.3504V4.49277H28.9604H28.5704V5.47557H28.9604ZM28.9604 4.49277L29.1634 4.82575L30.4426 4.04575L30.2396 3.71277L30.0366 3.37979L28.7574 4.15979L28.9604 4.49277ZM30.2396 3.71277L30.6049 3.84936L31.2757 2.05536L30.9104 1.91877L30.5451 1.78218L29.8743 3.57618L30.2396 3.71277ZM30.9104 1.91877V2.30877H32.3924V1.91877V1.52877H30.9104V1.91877ZM32.3924 1.91877H32.0024V3.72837H32.3924H32.7824V1.91877H32.3924ZM32.3924 3.72837V4.11837H34.7792V3.72837V3.33837H32.3924V3.72837ZM34.7792 3.72837H34.3892V5.47557H34.7792H35.1692V3.72837H34.7792ZM34.7792 5.47557V5.08557H32.3924V5.47557V5.86557H34.7792V5.47557ZM32.3924 5.47557H32.0024V9.57837H32.3924H32.7824V5.47557H32.3924ZM32.3924 9.57837H32.0024C32.0024 9.97806 32.1211 10.3427 32.4141 10.6031L32.6732 10.3116L32.9323 10.0201C32.8508 9.94767 32.7824 9.82348 32.7824 9.57837H32.3924ZM32.6732 10.3116L32.4235 10.6112C32.6963 10.8385 33.0359 10.9356 33.4064 10.9356V10.5456V10.1556C33.1736 10.1556 33.0245 10.0967 32.9229 10.012L32.6732 10.3116ZM41.8084 1.23237L41.6636 1.59448V1.59448L41.8084 1.23237ZM42.916 2.05917L42.603 2.29176L42.6063 2.29608L42.916 2.05917ZM42.6821 5.17917L42.3882 4.9228L42.3882 4.9228L42.6821 5.17917ZM41.0909 6.45837L40.8968 6.1201L40.4479 6.37762L40.8191 6.73814L41.0909 6.45837ZM43.2593 8.56437L42.9875 8.84414L43.3437 9.19004L43.5954 8.76211L43.2593 8.56437ZM43.8053 7.45677L44.1667 7.6033L44.168 7.59997L43.8053 7.45677ZM44.1953 6.27117V5.88117H43.8946L43.8181 6.17192L44.1953 6.27117ZM46.6133 6.27117L46.99 6.37208L47.1215 5.88117H46.6133V6.27117ZM45.9268 8.14317L46.2821 8.30414H46.2821L45.9268 8.14317ZM44.7725 10.0152L44.4684 9.77088L44.2463 10.0474L44.5005 10.2947L44.7725 10.0152ZM47.0657 12.246V12.636H48.0259L47.3376 11.9664L47.0657 12.246ZM44.1953 12.246L43.922 12.5242L44.0358 12.636H44.1953V12.246ZM43.3217 11.388L43.5949 11.1097L43.3665 10.8854L43.102 11.0657L43.3217 11.388ZM42.604 11.8092L42.4296 11.4603V11.4603L42.604 11.8092ZM41.8241 12.1368L41.9388 12.5098L41.9516 12.5053L41.8241 12.1368ZM40.966 12.324L40.9127 11.9374L40.8998 11.9396L40.966 12.324ZM37.8616 12.012L37.7021 12.3679L37.7073 12.3701L37.8616 12.012ZM36.4733 10.8888L36.7967 10.6708V10.6708L36.4733 10.8888ZM36.2237 7.87797L35.8657 7.72316L35.8637 7.72797L36.2237 7.87797ZM36.9257 6.87957L37.1914 7.16501L37.1918 7.16468L36.9257 6.87957ZM38.0332 6.08397L38.2241 6.42411L38.6413 6.19006L38.328 5.82855L38.0332 6.08397ZM37.3781 5.21037L37.0371 5.39977L37.0413 5.40737L37.0459 5.41477L37.3781 5.21037ZM37.0349 4.38357L36.6546 4.47132L36.6583 4.48496L37.0349 4.38357ZM37.3469 2.15277L37.0318 1.92284L37.0278 1.92854L37.3469 2.15277ZM38.5013 1.26357L38.3512 0.903561L38.3485 0.904711L38.5013 1.26357ZM39.3904 7.47237L39.6654 7.19575L39.4282 6.96009L39.1591 7.1584L39.3904 7.47237ZM38.8756 7.92477L38.5905 7.65867L38.5856 7.66392L38.5809 7.66935L38.8756 7.92477ZM38.548 8.42397L38.1952 8.25791L38.1911 8.2666L38.1874 8.27548L38.548 8.42397ZM38.938 10.0776L38.6979 10.385L38.7041 10.3896L38.938 10.0776ZM41.1221 10.3272L41.2292 10.7022V10.7022L41.1221 10.3272ZM41.9177 9.98397L42.1204 10.3171L42.5457 10.0583L42.1926 9.70735L41.9177 9.98397ZM39.4373 2.94837L39.624 3.29079L39.6292 3.28789L39.4373 2.94837ZM39.2812 4.43037L38.9353 4.61087L38.9417 4.62227L39.2812 4.43037ZM39.8116 5.16357L39.5181 5.42039L39.7243 5.65603L39.999 5.50564L39.8116 5.16357ZM40.8101 4.44597L40.5342 4.17013L40.5282 4.17639L40.8101 4.44597ZM40.8568 2.94837L41.0694 2.62138V2.62138L40.8568 2.94837ZM40.2016 0.951571V1.34157C40.7648 1.34157 41.2498 1.42894 41.6636 1.59448L41.8084 1.23237L41.9533 0.870265C41.4311 0.661399 40.8449 0.561571 40.2016 0.561571V0.951571ZM41.8084 1.23237L41.6636 1.59448C42.0723 1.75797 42.3803 1.99196 42.603 2.29174L42.916 2.05917L43.2291 1.8266C42.911 1.39838 42.4806 1.08118 41.9533 0.870265L41.8084 1.23237ZM42.916 2.05917L42.6063 2.29608C42.8162 2.57065 42.9317 2.92023 42.9317 3.36957H43.3217H43.7117C43.7117 2.77891 43.5567 2.25489 43.2258 1.82226L42.916 2.05917ZM43.3217 3.36957H42.9317C42.9317 4.00368 42.7459 4.51275 42.3882 4.9228L42.6821 5.17917L42.9759 5.43554C43.471 4.86799 43.7117 4.17067 43.7117 3.36957H43.3217ZM42.6821 5.17917L42.3882 4.9228C41.9936 5.37506 41.4983 5.77494 40.8968 6.1201L41.0909 6.45837L41.2849 6.79664C41.9522 6.4138 42.5177 5.96088 42.9759 5.43554L42.6821 5.17917ZM41.0909 6.45837L40.8191 6.73814L42.9875 8.84414L43.2593 8.56437L43.531 8.2846L41.3626 6.1786L41.0909 6.45837ZM43.2593 8.56437L43.5954 8.76211C43.8132 8.39188 44.0036 8.00555 44.1667 7.6033L43.8053 7.45677L43.4438 7.31025C43.2949 7.6776 43.1213 8.02966 42.9231 8.36663L43.2593 8.56437ZM43.8053 7.45677L44.168 7.59997C44.3295 7.19098 44.4643 6.78112 44.5724 6.37042L44.1953 6.27117L43.8181 6.17192C43.7182 6.55162 43.593 6.93216 43.4425 7.31358L43.8053 7.45677ZM44.1953 6.27117V6.66117H46.6133V6.27117V5.88117H44.1953V6.27117ZM46.6133 6.27117L46.2365 6.17026C46.0871 6.72832 45.8662 7.33209 45.5716 7.98221L45.9268 8.14317L46.2821 8.30414C46.5907 7.62305 46.8274 6.97882 46.99 6.37208L46.6133 6.27117ZM45.9268 8.14317L45.5716 7.98221C45.2838 8.61732 44.9164 9.21342 44.4684 9.77088L44.7725 10.0152L45.0765 10.2595C45.5645 9.65212 45.9667 9.00022 46.2821 8.30414L45.9268 8.14317ZM44.7725 10.0152L44.5005 10.2947L46.7937 12.5255L47.0657 12.246L47.3376 11.9664L45.0444 9.73562L44.7725 10.0152ZM47.0657 12.246V11.856H44.1953V12.246V12.636H47.0657V12.246ZM44.1953 12.246L44.4685 11.9677L43.5949 11.1097L43.3217 11.388L43.0484 11.6662L43.922 12.5242L44.1953 12.246ZM43.3217 11.388L43.102 11.0657C42.8877 11.2118 42.6637 11.3433 42.4296 11.4603L42.604 11.8092L42.7785 12.158C43.0436 12.0254 43.298 11.8762 43.5414 11.7102L43.3217 11.388ZM42.604 11.8092L42.4296 11.4603C42.1956 11.5774 41.9513 11.68 41.6965 11.7682L41.8241 12.1368L41.9516 12.5053C42.2376 12.4063 42.5133 12.2906 42.7785 12.158L42.604 11.8092ZM41.8241 12.1368L41.7094 11.764C41.4605 11.8406 41.1951 11.8987 40.9128 11.9376L40.966 12.324L41.0193 12.7103C41.3402 12.6661 41.6468 12.5993 41.9387 12.5095L41.8241 12.1368ZM40.966 12.324L40.8998 11.9396C40.6212 11.9877 40.3314 12.012 40.0301 12.012V12.402V12.792C40.3735 12.792 40.7077 12.7643 41.0323 12.7083L40.966 12.324ZM40.0301 12.402V12.012C39.2263 12.012 38.5588 11.8878 38.016 11.6538L37.8616 12.012L37.7073 12.3701C38.3709 12.6562 39.149 12.792 40.0301 12.792V12.402ZM37.8616 12.012L38.0212 11.6561C37.4745 11.411 37.0727 11.0804 36.7967 10.6708L36.4733 10.8888L36.1498 11.1067C36.5186 11.6539 37.0424 12.0721 37.7021 12.3679L37.8616 12.012ZM36.4733 10.8888L36.7967 10.6708C36.5212 10.2621 36.3797 9.78815 36.3797 9.23517H35.9897H35.5997C35.5997 9.93019 35.7805 10.5586 36.1498 11.1067L36.4733 10.8888ZM35.9897 9.23517H36.3797C36.3797 8.74118 36.4525 8.34266 36.5836 8.02797L36.2237 7.87797L35.8637 7.72797C35.6828 8.16208 35.5997 8.66836 35.5997 9.23517H35.9897ZM36.2237 7.87797L36.5816 8.03277C36.727 7.69653 36.9299 7.40845 37.1914 7.16501L36.9257 6.87957L36.6599 6.59413C36.3182 6.91229 36.0531 7.28981 35.8657 7.72318L36.2237 7.87797ZM36.9257 6.87957L37.1918 7.16468C37.4779 6.89759 37.821 6.65021 38.2241 6.42411L38.0332 6.08397L37.8424 5.74384C37.3927 5.99613 36.9974 6.27915 36.6595 6.59446L36.9257 6.87957ZM38.0332 6.08397L38.328 5.82855C38.0675 5.52805 37.8628 5.25397 37.7102 5.00597L37.3781 5.21037L37.0459 5.41477C37.2261 5.70758 37.4582 6.01589 37.7385 6.33939L38.0332 6.08397ZM37.3781 5.21037L37.719 5.02097C37.5762 4.76396 37.4749 4.5178 37.4114 4.28218L37.0349 4.38357L36.6583 4.48496C36.7404 4.79015 36.8679 5.09518 37.0371 5.39977L37.3781 5.21037ZM37.0349 4.38357L37.4149 4.29588C37.3596 4.0566 37.3312 3.80019 37.3312 3.52557H36.9412H36.5513C36.5513 3.85416 36.5853 4.16974 36.6548 4.47127L37.0349 4.38357ZM36.9412 3.52557H37.3312C37.3312 3.06476 37.4475 2.68792 37.6659 2.377L37.3469 2.15277L37.0278 1.92854C36.7054 2.38723 36.5513 2.92558 36.5513 3.52557H36.9412ZM37.3469 2.15277L37.6619 2.38266C37.8966 2.06107 38.2223 1.80613 38.654 1.62243L38.5013 1.26357L38.3485 0.904711C37.8026 1.13701 37.3587 1.47487 37.0318 1.92288L37.3469 2.15277ZM38.5013 1.26357L38.6512 1.62357C39.0954 1.43849 39.61 1.34157 40.2016 1.34157V0.951571V0.561571C39.5245 0.561571 38.9055 0.672647 38.3512 0.90357L38.5013 1.26357ZM39.3904 7.47237L39.1591 7.1584C38.945 7.31619 38.7548 7.4827 38.5905 7.65867L38.8756 7.92477L39.1608 8.19088C39.2877 8.05484 39.4407 7.91975 39.6218 7.78634L39.3904 7.47237ZM38.8756 7.92477L38.5809 7.66935C38.4237 7.85081 38.2944 8.04703 38.1952 8.25791L38.548 8.42397L38.9009 8.59003C38.9681 8.44732 39.0572 8.31073 39.1704 8.18019L38.8756 7.92477ZM38.548 8.42397L38.1874 8.27548C38.0927 8.50561 38.0489 8.75462 38.0489 9.01677H38.4389H38.8288C38.8288 8.84212 38.8578 8.69594 38.9087 8.57246L38.548 8.42397ZM38.4389 9.01677H38.0489C38.0489 9.57584 38.2643 10.0461 38.6979 10.3849L38.938 10.0776L39.1782 9.77024C38.9462 9.58905 38.8288 9.35211 38.8288 9.01677H38.4389ZM38.938 10.0776L38.7041 10.3896C39.117 10.6993 39.6198 10.842 40.1861 10.842V10.452V10.062C39.7539 10.062 39.4247 9.95503 39.1721 9.76557L38.938 10.0776ZM40.1861 10.452V10.842C40.5515 10.842 40.8999 10.7963 41.2292 10.7022L41.1221 10.3272L41.0149 9.95218C40.7618 10.0245 40.4862 10.062 40.1861 10.062V10.452ZM41.1221 10.3272L41.2292 10.7022C41.5513 10.6101 41.849 10.4823 42.1204 10.3171L41.9177 9.98397L41.7149 9.65083C41.5079 9.77684 41.2752 9.8778 41.0149 9.95218L41.1221 10.3272ZM41.9177 9.98397L42.1926 9.70735L39.6654 7.19575L39.3904 7.47237L39.1155 7.74899L41.6427 10.2606L41.9177 9.98397ZM40.1861 2.74557V2.35557C39.8549 2.35557 39.5396 2.44251 39.2453 2.60885L39.4373 2.94837L39.6292 3.28789C39.8133 3.18383 39.9972 3.13557 40.1861 3.13557V2.74557ZM39.4373 2.94837L39.2505 2.60599C38.8488 2.82511 38.7041 3.23886 38.7041 3.68157H39.0941H39.4841C39.4841 3.39628 39.5681 3.32123 39.624 3.29075L39.4373 2.94837ZM39.0941 3.68157H38.7041C38.7041 4.00679 38.7828 4.31805 38.9355 4.61077L39.2812 4.43037L39.627 4.24997C39.5301 4.06429 39.4841 3.87635 39.4841 3.68157H39.0941ZM39.2812 4.43037L38.9417 4.62227C39.0924 4.8888 39.2857 5.15474 39.5181 5.42039L39.8116 5.16357L40.1052 4.90675C39.9008 4.6732 39.7405 4.45035 39.6208 4.23847L39.2812 4.43037ZM39.8116 5.16357L39.999 5.50564C40.455 5.25591 40.8253 4.99425 41.0919 4.71555L40.8101 4.44597L40.5282 4.17639C40.3372 4.3761 40.0419 4.59283 39.6243 4.8215L39.8116 5.16357ZM40.8101 4.44597L41.0858 4.72174C41.3914 4.4162 41.5588 4.04384 41.5588 3.61917H41.1688H40.7789C40.7789 3.81851 40.7071 3.99734 40.5343 4.1702L40.8101 4.44597ZM41.1688 3.61917H41.5588C41.5588 3.21382 41.417 2.84732 41.0694 2.62138L40.8568 2.94837L40.6443 3.27536C40.7127 3.31983 40.7789 3.40052 40.7789 3.61917H41.1688ZM40.8568 2.94837L41.0694 2.62138C40.8006 2.44667 40.5036 2.35557 40.1861 2.35557V2.74557V3.13557C40.3469 3.13557 40.4971 3.17967 40.6443 3.27536L40.8568 2.94837ZM54.5536 10.8732L54.2281 10.6584V10.6584L54.5536 10.8732ZM53.1497 12.012L53.304 12.3701L53.3069 12.3689L53.1497 12.012ZM49.7957 12.324L49.7405 12.7101L49.742 12.7103L49.7957 12.324ZM48.7349 12.1056L48.6185 12.4778L48.6253 12.4799L48.6322 12.4818L48.7349 12.1056ZM47.7833 11.7312H47.3932V11.976L47.6137 12.0824L47.7833 11.7312ZM47.7833 9.53157L47.9377 9.17347L47.3932 8.9386V9.53157H47.7833ZM49.4212 10.1712L49.2918 10.5392L49.2999 10.5418L49.4212 10.1712ZM52.0421 10.296L51.8865 9.93827L51.8807 9.94093L52.0421 10.296ZM52.5569 9.87477L52.2294 9.6629L52.2249 9.66988L52.2207 9.67703L52.5569 9.87477ZM52.4321 8.54877L52.1488 8.81709L52.1563 8.82454L52.4321 8.54877ZM51.6677 8.00277L51.4801 8.34484L51.4888 8.34933L51.6677 8.00277ZM50.5601 7.44117L50.3913 7.79277L50.3927 7.79345L50.5601 7.44117ZM49.7177 7.00437L49.5204 7.34094L49.5293 7.34585L49.7177 7.00437ZM48.8441 6.36477L48.5737 6.6459L48.5792 6.65119L48.5849 6.65626L48.8441 6.36477ZM48.1733 5.42877L47.8224 5.59916V5.59916L48.1733 5.42877ZM48.3605 2.41797L48.0338 2.20492L48.0326 2.20671L48.3605 2.41797ZM49.6709 1.32597L49.5149 0.968512L49.5125 0.969584L49.6709 1.32597ZM53.3369 1.15437L53.2387 1.53183L53.2405 1.53229L53.3369 1.15437ZM54.9905 1.73157L55.3506 1.88114L55.4976 1.52734L55.1464 1.37412L54.9905 1.73157ZM54.2261 3.57237L54.0787 3.93345L54.4376 4.07994L54.5862 3.72194L54.2261 3.57237ZM52.8533 3.08877L52.7474 3.46413V3.46413L52.8533 3.08877ZM50.8565 3.05757L51.0165 3.41322V3.41322L50.8565 3.05757ZM50.3729 3.44757L50.0515 3.22663L50.0466 3.23365L50.0421 3.24087L50.3729 3.44757ZM50.4509 4.71117L50.1511 4.96094L50.1584 4.9692L50.4509 4.71117ZM51.1529 5.22597L51.3364 4.88185V4.88185L51.1529 5.22597ZM52.3229 5.81877L52.1515 6.16917L52.1562 6.17136L52.3229 5.81877ZM53.7737 6.66117L53.5423 6.97517L53.5462 6.97798L53.7737 6.66117ZM54.7097 7.69077L54.3683 7.87941V7.87941L54.7097 7.69077ZM55.0373 9.15717H54.6473C54.6473 9.74543 54.5036 10.2408 54.2281 10.6584L54.5536 10.8732L54.8792 11.0879C55.2485 10.528 55.4273 9.87931 55.4273 9.15717H55.0373ZM54.5536 10.8732L54.2281 10.6584C53.9527 11.076 53.5476 11.4104 52.9924 11.6551L53.1497 12.012L53.3069 12.3689C53.9789 12.0727 54.5098 11.648 54.8792 11.0879L54.5536 10.8732ZM53.1497 12.012L52.9953 11.6538C52.4541 11.8871 51.7716 12.012 50.9345 12.012V12.402V12.792C51.8445 12.792 52.6388 12.6568 53.304 12.3701L53.1497 12.012ZM50.9345 12.402V12.012C50.5673 12.012 50.2056 11.9872 49.8493 11.9377L49.7957 12.324L49.742 12.7103C50.1345 12.7648 50.532 12.792 50.9345 12.792V12.402ZM49.7957 12.324L49.8508 11.9379C49.5023 11.8881 49.1646 11.8185 48.8375 11.7293L48.7349 12.1056L48.6322 12.4818C48.9916 12.5798 49.361 12.6558 49.7405 12.7101L49.7957 12.324ZM48.7349 12.1056L48.8512 11.7333C48.5359 11.6348 48.2365 11.5169 47.9528 11.38L47.7833 11.7312L47.6137 12.0824C47.9332 12.2366 48.2682 12.3684 48.6185 12.4778L48.7349 12.1056ZM47.7833 11.7312H48.1733V9.53157H47.7833H47.3932V11.7312H47.7833ZM47.7833 9.53157L47.6288 9.88967C48.1677 10.1221 48.722 10.3386 49.2918 10.5391L49.4212 10.1712L49.5507 9.80328C48.9973 9.60856 48.4597 9.39861 47.9377 9.17347L47.7833 9.53157ZM49.4212 10.1712L49.2999 10.5418C49.9083 10.7409 50.516 10.842 51.1217 10.842V10.452V10.062C50.6041 10.062 50.0782 9.97582 49.5426 9.80052L49.4212 10.1712ZM51.1217 10.452V10.842C51.5354 10.842 51.9043 10.787 52.2034 10.651L52.0421 10.296L51.8807 9.94093C51.7222 10.0129 51.4775 10.062 51.1217 10.062V10.452ZM52.0421 10.296L52.1976 10.6536C52.4917 10.5257 52.7371 10.3376 52.893 10.0725L52.5569 9.87477L52.2207 9.67703C52.1686 9.76555 52.0708 9.85821 51.8865 9.93831L52.0421 10.296ZM52.5569 9.87477L52.8843 10.0866C53.0431 9.84127 53.1185 9.56357 53.1185 9.26637H52.7285H52.3385C52.3385 9.42677 52.2994 9.55468 52.2294 9.6629L52.5569 9.87477ZM52.7285 9.26637H53.1185C53.1185 8.8827 52.979 8.54414 52.7078 8.273L52.4321 8.54877L52.1563 8.82454C52.2803 8.94861 52.3385 9.08844 52.3385 9.26637H52.7285ZM52.4321 8.54877L52.7152 8.28055C52.4897 8.04257 52.1957 7.83642 51.8465 7.65621L51.6677 8.00277L51.4888 8.34933C51.7844 8.50192 52 8.65977 52.1489 8.81699L52.4321 8.54877ZM51.6677 8.00277L51.8552 7.66081C51.5247 7.47961 51.1486 7.28897 50.7274 7.08889L50.5601 7.44117L50.3927 7.79345C50.8035 7.98857 51.1658 8.17233 51.4801 8.34473L51.6677 8.00277ZM50.5601 7.44117L50.7288 7.08958C50.4766 6.9685 50.2024 6.8264 49.9061 6.6629L49.7177 7.00437L49.5293 7.34585C49.8361 7.51515 50.1235 7.66424 50.3913 7.79276L50.5601 7.44117ZM49.7177 7.00437L49.9149 6.66792C49.6369 6.50496 49.3663 6.30716 49.1032 6.07328L48.8441 6.36477L48.5849 6.65626C48.8834 6.92159 49.1952 7.15018 49.5204 7.34082L49.7177 7.00437ZM48.8441 6.36477L49.1144 6.08365C48.8796 5.85795 48.6824 5.58428 48.5241 5.25838L48.1733 5.42877L47.8224 5.59916C48.0177 6.00126 48.2677 6.35159 48.5737 6.6459L48.8441 6.36477ZM48.1733 5.42877L48.5241 5.25838C48.3788 4.95942 48.298 4.58383 48.298 4.11837H47.9081H47.5181C47.5181 4.67211 47.6141 5.17013 47.8224 5.59916L48.1733 5.42877ZM47.9081 4.11837H48.298C48.298 3.51287 48.4346 3.02284 48.6883 2.62923L48.3605 2.41797L48.0326 2.20671C47.6831 2.7491 47.5181 3.39267 47.5181 4.11837H47.9081ZM48.3605 2.41797L48.6871 2.63101C48.9549 2.22045 49.3309 1.90383 49.8292 1.68236L49.6709 1.32597L49.5125 0.969584C48.8876 1.24731 48.39 1.65869 48.0338 2.20493L48.3605 2.41797ZM49.6709 1.32597L49.8268 1.68342C50.3396 1.45968 50.9552 1.34157 51.6833 1.34157V0.951571V0.561571C50.8721 0.561571 50.1461 0.693066 49.5149 0.96852L49.6709 1.32597ZM51.6833 0.951571V1.34157C52.2353 1.34157 52.7533 1.40562 53.2387 1.53182L53.3369 1.15437L53.435 0.77692C52.8804 0.632722 52.296 0.561571 51.6833 0.561571V0.951571ZM53.3369 1.15437L53.2405 1.53229C53.7479 1.66162 54.2791 1.8467 54.8345 2.08902L54.9905 1.73157L55.1464 1.37412C54.5578 1.11724 53.9866 0.917519 53.4332 0.776455L53.3369 1.15437ZM54.9905 1.73157L54.6303 1.582L53.8659 3.4228L54.2261 3.57237L54.5862 3.72194L55.3506 1.88114L54.9905 1.73157ZM54.2261 3.57237L54.3734 3.21129C53.8541 2.99933 53.3823 2.83278 52.9591 2.71342L52.8533 3.08877L52.7474 3.46413C53.1354 3.57356 53.5788 3.72941 54.0787 3.93345L54.2261 3.57237ZM52.8533 3.08877L52.9591 2.71342C52.5187 2.58918 52.067 2.52717 51.6053 2.52717V2.91717V3.30717C51.9963 3.30717 52.3766 3.35956 52.7474 3.46413L52.8533 3.08877ZM51.6053 2.91717V2.52717C51.2736 2.52717 50.9666 2.58033 50.6964 2.70192L50.8565 3.05757L51.0165 3.41322C51.1623 3.34761 51.3545 3.30717 51.6053 3.30717V2.91717ZM50.8565 3.05757L50.6964 2.70192C50.432 2.82093 50.2114 2.99406 50.0515 3.22663L50.3729 3.44757L50.6942 3.66852C50.7631 3.56828 50.865 3.48141 51.0165 3.41322L50.8565 3.05757ZM50.3729 3.44757L50.0421 3.24087C49.8933 3.47895 49.8269 3.75082 49.8269 4.04037H50.2169H50.6068C50.6068 3.87232 50.6444 3.74899 50.7036 3.65427L50.3729 3.44757ZM50.2169 4.04037H49.8269C49.8269 4.38501 49.9328 4.69865 50.1512 4.96084L50.4509 4.71117L50.7505 4.4615C50.657 4.34929 50.6068 4.21573 50.6068 4.04037H50.2169ZM50.4509 4.71117L50.1584 4.9692C50.3566 5.19387 50.6347 5.39162 50.9693 5.57009L51.1529 5.22597L51.3364 4.88185C51.047 4.72752 50.8571 4.58208 50.7433 4.45314L50.4509 4.71117ZM51.1529 5.22597L50.9693 5.57009C51.2868 5.73939 51.6812 5.93917 52.1516 6.16914L52.3229 5.81877L52.4941 5.4684C52.0285 5.24077 51.6429 5.04535 51.3364 4.88185L51.1529 5.22597ZM52.3229 5.81877L52.1562 6.17136C52.7116 6.43391 53.1722 6.70243 53.5423 6.97514L53.7737 6.66117L54.005 6.3472C53.5847 6.03752 53.0781 5.74443 52.4895 5.46618L52.3229 5.81877ZM53.7737 6.66117L53.5462 6.97798C53.9098 7.23904 54.1807 7.54 54.3683 7.87941L54.7097 7.69077L55.051 7.50213C54.8018 7.05114 54.4487 6.6657 54.0011 6.34437L53.7737 6.66117ZM54.7097 7.69077L54.3683 7.87941C54.5469 8.20249 54.6473 8.62212 54.6473 9.15717H55.0373H55.4273C55.4273 8.52742 55.3092 7.96945 55.051 7.50213L54.7097 7.69077ZM64.3158 9.85917L63.9487 9.72754L63.9466 9.73375L64.3158 9.85917ZM63.489 11.2632L63.2057 10.9952L63.2055 10.9954L63.489 11.2632ZM62.1942 12.1212L62.3287 12.4873L62.3352 12.4848L62.1942 12.1212ZM58.809 12.1212L58.6655 12.4839L58.6746 12.4873L58.809 12.1212ZM57.5142 11.2632L57.2309 11.5312L57.2346 11.535L57.5142 11.2632ZM56.6562 9.85917L56.2891 9.9908L56.2914 9.99686L56.6562 9.85917ZM56.859 5.58477L57.2056 5.76365L57.2068 5.76139L56.859 5.58477ZM58.2942 4.08717L58.4822 4.4289V4.4289L58.2942 4.08717ZM62.631 4.08717L62.4407 4.42755V4.42755L62.631 4.08717ZM64.0818 5.58477L63.7386 5.77L63.7399 5.7723L64.0818 5.58477ZM58.9026 9.39117L58.5286 9.50237L58.5327 9.5145L58.9026 9.39117ZM59.4798 10.2492L59.2438 10.5598L59.252 10.5657L59.4798 10.2492ZM61.4922 10.2492L61.7262 10.5612L61.7282 10.5597L61.4922 10.2492ZM62.0538 9.39117L61.6828 9.27084L61.6809 9.27721L62.0538 9.39117ZM62.0538 6.56757L61.6807 6.68157L61.6839 6.6909L62.0538 6.56757ZM59.1366 6.08397L58.8109 5.86947L58.8096 5.87143L59.1366 6.08397ZM64.6122 7.97157H64.2222C64.2222 8.64295 64.1284 9.22633 63.9487 9.72756L64.3158 9.85917L64.683 9.99078C64.8985 9.38961 65.0022 8.71459 65.0022 7.97157H64.6122ZM64.3158 9.85917L63.9466 9.73375C63.7756 10.2371 63.5275 10.655 63.2057 10.9952L63.489 11.2632L63.7724 11.5312C64.1786 11.1017 64.4817 10.5836 64.6851 9.98459L64.3158 9.85917ZM63.489 11.2632L63.2055 10.9954C62.8941 11.3251 62.5122 11.5796 62.0532 11.7576L62.1942 12.1212L62.3352 12.4848C62.8955 12.2675 63.3768 11.9501 63.7726 11.531L63.489 11.2632ZM62.1942 12.1212L62.0598 11.7551C61.6005 11.9238 61.07 12.012 60.4626 12.012V12.402V12.792C61.1449 12.792 61.7688 12.6929 62.3287 12.4873L62.1942 12.1212ZM60.4626 12.402V12.012C59.9115 12.012 59.4063 11.9251 58.9435 11.7551L58.809 12.1212L58.6746 12.4873C59.231 12.6917 59.8282 12.792 60.4626 12.792V12.402ZM58.809 12.1212L58.9526 11.7585C58.5032 11.5807 58.1183 11.325 57.7939 10.9913L57.5142 11.2632L57.2346 11.535C57.6381 11.9501 58.1165 12.2665 58.6655 12.4838L58.809 12.1212ZM57.5142 11.2632L57.7976 10.9952C57.4729 10.652 57.2129 10.2297 57.0211 9.72148L56.6562 9.85917L56.2914 9.99686C56.5156 10.591 56.8276 11.1048 57.2309 11.5312L57.5142 11.2632ZM56.6562 9.85917L57.0234 9.72756C56.8437 9.22633 56.7498 8.64295 56.7498 7.97157H56.3598H55.9698C55.9698 8.71459 56.0736 9.38961 56.2891 9.99078L56.6562 9.85917ZM56.3598 7.97157H56.7498C56.7498 7.06912 56.9087 6.3389 57.2056 5.76364L56.859 5.58477L56.5125 5.4059C56.1438 6.12024 55.9698 6.98122 55.9698 7.97157H56.3598ZM56.859 5.58477L57.2068 5.76139C57.5053 5.17365 57.9291 4.73309 58.4822 4.4289L58.2942 4.08717L58.1063 3.74545C57.4114 4.12765 56.8784 4.68549 56.5113 5.40815L56.859 5.58477ZM58.2942 4.08717L58.4822 4.4289C59.0382 4.12307 59.7094 3.96237 60.5094 3.96237V3.57237V3.18237C59.6039 3.18237 58.7982 3.36487 58.1063 3.74545L58.2942 4.08717ZM60.5094 3.57237V3.96237C61.253 3.96237 61.8929 4.12119 62.4407 4.42755L62.631 4.08717L62.8214 3.7468C62.142 3.36676 61.3675 3.18237 60.5094 3.18237V3.57237ZM62.631 4.08717L62.4407 4.42755C62.9857 4.73242 63.418 5.17595 63.7386 5.76999L64.0818 5.58477L64.425 5.39955C64.0384 4.68319 63.5035 4.12832 62.8214 3.7468L62.631 4.08717ZM64.0818 5.58477L63.7399 5.7723C64.0542 6.34545 64.2222 7.0724 64.2222 7.97157H64.6122H65.0022C65.0022 6.97795 64.8167 6.1137 64.4238 5.39725L64.0818 5.58477ZM58.731 7.97157H58.341C58.341 8.55704 58.4004 9.07027 58.5288 9.50231L58.9026 9.39117L59.2765 9.28003C59.1761 8.94248 59.121 8.50931 59.121 7.97157H58.731ZM58.9026 9.39117L58.5327 9.5145C58.677 9.94759 58.9093 10.3054 59.2439 10.5597L59.4798 10.2492L59.7158 9.93867C59.5303 9.7977 59.3779 9.58355 59.2726 9.26784L58.9026 9.39117ZM59.4798 10.2492L59.252 10.5657C59.5957 10.8132 60.0204 10.92 60.4938 10.92V10.53V10.14C60.1353 10.14 59.884 10.0596 59.7077 9.93267L59.4798 10.2492ZM60.4938 10.53V10.92C60.9663 10.92 61.3898 10.8135 61.7262 10.5612L61.4922 10.2492L61.2582 9.93717C61.0955 10.0592 60.8534 10.14 60.4938 10.14V10.53ZM61.4922 10.2492L61.7282 10.5597C62.0655 10.3034 62.2934 9.94187 62.4268 9.50514L62.0538 9.39117L61.6809 9.27721C61.5855 9.58927 61.439 9.79979 61.2563 9.93867L61.4922 10.2492ZM62.0538 9.39117L62.4248 9.51149C62.5661 9.076 62.631 8.5594 62.631 7.97157H62.241H61.851C61.851 8.50694 61.7912 8.93674 61.6829 9.27085L62.0538 9.39117ZM62.241 7.97157H62.631C62.631 7.38427 62.5662 6.87133 62.4238 6.44424L62.0538 6.56757L61.6839 6.6909C61.7911 7.01262 61.851 7.43567 61.851 7.97157H62.241ZM62.0538 6.56757L62.4268 6.45361C62.2932 6.01619 62.0636 5.65595 61.7201 5.40867L61.4922 5.72517L61.2644 6.04167C61.4409 6.16879 61.5857 6.37016 61.6809 6.68154L62.0538 6.56757ZM61.4922 5.72517L61.7201 5.40867C61.3764 5.16119 60.9517 5.05437 60.4782 5.05437V5.44437V5.83437C60.8368 5.83437 61.0881 5.91475 61.2644 6.04167L61.4922 5.72517ZM60.4782 5.44437V5.05437C59.7639 5.05437 59.1792 5.3103 58.8109 5.86947L59.1366 6.08397L59.4624 6.29847C59.6557 6.00485 59.9653 5.83437 60.4782 5.83437V5.44437ZM59.1366 6.08397L58.8096 5.87143C58.4784 6.38097 58.341 7.10054 58.341 7.97157H58.731H59.121C59.121 7.1578 59.254 6.61898 59.4636 6.29652L59.1366 6.08397ZM68.8576 3.72837H69.2476V3.33837H68.8576V3.72837ZM68.8576 12.246V12.636H69.2476V12.246H68.8576ZM66.5332 12.246H66.1432V12.636H66.5332V12.246ZM66.5332 3.72837V3.33837H66.1432V3.72837H66.5332ZM68.5924 0.639571L68.376 0.964211L68.3857 0.97029L68.5924 0.639571ZM68.5924 2.41797L68.3761 2.09347V2.09347L68.5924 2.41797ZM66.7984 2.41797L66.5757 2.73819L66.5821 2.74247L66.7984 2.41797ZM66.7984 0.639571L67.0115 0.966256L67.0148 0.96407L66.7984 0.639571ZM68.8576 3.72837H68.4676V12.246H68.8576H69.2476V3.72837H68.8576ZM68.8576 12.246V11.856H66.5332V12.246V12.636H68.8576V12.246ZM66.5332 12.246H66.9232V3.72837H66.5332H66.1432V12.246H66.5332ZM66.5332 3.72837V4.11837H68.8576V3.72837V3.33837H66.5332V3.72837ZM67.7032 0.389971V0.779971C67.9809 0.779971 68.1995 0.846304 68.3761 0.96407L68.5924 0.639571L68.8088 0.315072C68.4862 0.100038 68.112 -2.95639e-05 67.7032 -2.95639e-05V0.389971ZM68.5924 0.639571L68.3857 0.97029C68.4724 1.02448 68.5768 1.1564 68.5768 1.52877H68.9668H69.3568C69.3568 1.02754 69.2116 0.566665 68.7991 0.308851L68.5924 0.639571ZM68.9668 1.52877H68.5768C68.5768 1.88422 68.4756 2.02711 68.3761 2.09347L68.5924 2.41797L68.8088 2.74247C69.2084 2.47603 69.3568 2.02612 69.3568 1.52877H68.9668ZM68.5924 2.41797L68.3761 2.09347C68.1995 2.21124 67.9809 2.27757 67.7032 2.27757V2.66757V3.05757C68.112 3.05757 68.4862 2.9575 68.8088 2.74247L68.5924 2.41797ZM67.7032 2.66757V2.27757C67.4126 2.27757 67.1895 2.20998 67.0148 2.09347L66.7984 2.41797L66.5821 2.74247C66.9065 2.95876 67.2867 3.05757 67.7032 3.05757V2.66757ZM66.7984 2.41797L67.0211 2.09782C66.9294 2.03402 66.8296 1.89028 66.8296 1.52877H66.4396H66.0496C66.0496 2.02006 66.189 2.46912 66.5757 2.73812L66.7984 2.41797ZM66.4396 1.52877H66.8296C66.8296 1.15017 66.9327 1.01764 67.0115 0.966239L66.7984 0.639571L66.5854 0.312902C66.1858 0.573502 66.0496 1.03377 66.0496 1.52877H66.4396ZM66.7984 0.639571L67.0148 0.96407C67.1895 0.847556 67.4126 0.779971 67.7032 0.779971V0.389971V-2.95639e-05C67.2867 -2.95639e-05 66.9065 0.0987854 66.5821 0.315072L66.7984 0.639571ZM73.6108 12.246V12.636H74.0008V12.246H73.6108ZM71.2864 12.246H70.8964V12.636H71.2864V12.246ZM71.2864 0.389971V-2.95639e-05H70.8964V0.389971H71.2864ZM73.6108 0.389971H74.0008V-2.95639e-05H73.6108V0.389971ZM73.6108 12.246V11.856H71.2864V12.246V12.636H73.6108V12.246ZM71.2864 12.246H71.6764V0.389971H71.2864H70.8964V12.246H71.2864ZM71.2864 0.389971V0.779971H73.6108V0.389971V-2.95639e-05H71.2864V0.389971ZM73.6108 0.389971H73.2208V12.246H73.6108H74.0008V0.389971H73.6108Z" fill="black" mask="url(#path-1-outside-1_1193_516)"/>
</svg>
